<?xml version="1.0" encoding="UTF-8"?>
<!DOCTYPE svg PUBLIC "-//W3C//DTD SVG 1.1//EN" "http://www.w3.org/Graphics/SVG/1.1/DTD/svg11.dtd">
<!-- Creator: CorelDRAW -->
<svg xmlns="http://www.w3.org/2000/svg" xml:space="preserve" version="1.1" style="shape-rendering:geometricPrecision; text-rendering:geometricPrecision; image-rendering:optimizeQuality; fill-rule:evenodd; clip-rule:evenodd"
viewBox="0 0 554.36 554.36"
 xmlns:xlink="http://www.w3.org/1999/xlink"
 xmlns:xodm="http://www.corel.com/coreldraw/odm/2003">
 <defs>
  <style type="text/css">
   <![CDATA[
    .fil1 {fill:#AF053F}
    .fil0 {fill:white}
   ]]>
  </style>
 </defs>
 <g id="Camada_x0020_1">
  <metadata id="CorelCorpID_0Corel-Layer"/>
  <circle class="fil0" cx="277.18" cy="277.18" r="277.18"/>
  <path class="fil1" d="M277.18 22.71c140.54,0 254.48,113.93 254.48,254.48 0,140.54 -113.93,254.47 -254.48,254.47 -140.54,0 -254.47,-113.93 -254.47,-254.47 0,-140.54 113.93,-254.48 254.47,-254.48zm-194.39 289.54l-22.3 42.6c-8.7,-24.26 -13.45,-50.41 -13.45,-77.66 0,-25.99 4.31,-50.98 12.26,-74.28l20.49 35.75c23.57,-17.12 48.52,-32.87 75.84,-46.23 5.94,-30.89 14.3,-60.57 24.12,-89.53l-43.91 -7.32c39.01,-30.41 88.06,-48.52 141.35,-48.52 1.1,0 2.2,0.02 3.29,0.04l-29.42 33.18c24.61,15.83 47.6,34.23 67.57,57.36 30.15,-5.71 60.51,-8.1 91.31,-3.51l-6.89 -49.61c44.55,29.17 78.38,73.36 94.27,125.39l-42.43 -18.95c-7.31,27.59 -16.98,55.18 -31.56,82.77 15.05,25.78 25.49,54.43 31.54,85.83l44.89 -23.63c-14.14,53.72 -47.21,99.77 -91.65,130.56l2.34 -48.83c-31.63,3.03 -61.16,1.2 -89.3,-3.88 -19.13,21.31 -42.64,40.11 -69.89,56.78l36.54 36.54c-3.52,0.16 -7.05,0.25 -10.61,0.25 -53.83,0 -103.35,-18.49 -142.54,-49.46l45.9 -8.58c-9.89,-29.22 -17.24,-58.44 -23.18,-87.66 -28.32,-12.99 -52.99,-29.63 -74.56,-49.37zm121.23 -90.21l-0.58 104.79 102.55 36.32 63.71 -87.25 -63.99 -87.59 -101.69 33.73z"/>
 </g>
</svg>
