<?xml version="1.0" encoding="UTF-8"?>
<!DOCTYPE svg PUBLIC "-//W3C//DTD SVG 1.1//EN" "http://www.w3.org/Graphics/SVG/1.1/DTD/svg11.dtd">
<!-- Creator: CorelDRAW -->
<svg xmlns="http://www.w3.org/2000/svg" xml:space="preserve" version="1.1" style="shape-rendering:geometricPrecision; text-rendering:geometricPrecision; image-rendering:optimizeQuality; fill-rule:evenodd; clip-rule:evenodd"
viewBox="0 0 10627.47 3026.14"
 xmlns:xlink="http://www.w3.org/1999/xlink"
 xmlns:xodm="http://www.corel.com/coreldraw/odm/2003">
 <defs>
  <style type="text/css">
   <![CDATA[
    .fil0 {fill:white}
    .fil1 {fill:white;fill-rule:nonzero}
   ]]>
  </style>
 </defs>
 <g id="Camada_x0020_1">
  <metadata id="CorelCorpID_0Corel-Layer"/>
  <g id="_2464787372736">
   <path class="fil0" d="M1505.8 7.43c831.64,0 1505.81,674.17 1505.81,1505.8 0,831.64 -674.17,1505.81 -1505.81,1505.81 -831.63,0 -1505.8,-674.17 -1505.8,-1505.81 0,-831.63 674.17,-1505.8 1505.8,-1505.8zm-1150.25 1713.27l-131.95 252.1c-51.46,-143.59 -79.58,-298.29 -79.58,-459.57 0,-153.8 25.53,-301.64 72.53,-439.54l121.22 211.53c139.49,-101.29 287.09,-194.47 448.78,-273.57 35.16,-182.8 84.61,-358.45 142.71,-529.78l-259.86 -43.3c230.81,-179.91 521.08,-287.13 836.4,-287.13 6.52,0 13,0.16 19.49,0.25l-174.09 196.32c145.65,93.68 281.64,202.53 399.83,339.38 178.41,-33.76 358.06,-47.93 540.28,-20.79l-40.77 -293.55c263.65,172.58 463.83,434.08 557.84,741.97l-251.08 -112.17c-43.27,163.25 -100.46,326.52 -186.77,489.77 89.04,152.52 150.83,322.06 186.61,507.87l265.65 -139.81c-83.66,317.88 -279.33,590.32 -542.32,772.54l13.87 -288.97c-187.13,17.97 -361.9,7.13 -528.42,-22.97 -113.18,126.11 -252.32,237.38 -413.56,336.02l216.22 216.22c-20.82,0.94 -41.73,1.49 -62.78,1.49 -318.54,0 -611.54,-109.39 -843.47,-292.64l271.58 -50.76c-58.51,-172.92 -101.98,-345.82 -137.13,-518.74 -167.6,-76.87 -313.58,-175.36 -441.23,-292.16zm717.38 -533.81l-3.47 620.09 606.81 214.89 377.01 -516.27 -378.66 -518.3 -601.69 199.6z"/>
   <path class="fil1" d="M4417.56 6.56c44.07,0 84.91,5.11 122.53,15.32 37.61,10.21 69.86,24.18 96.73,41.92 26.87,17.74 47.3,38.42 61.27,62.08 13.97,23.64 19.35,48.91 16.12,75.78l-103.18 725.51c-36.54,13.97 -72.02,20.16 -106.41,18.54 -34.4,-1.61 -64.75,-9.94 -91.1,-24.98 -26.33,-15.05 -46.22,-36.01 -59.65,-62.89 -13.44,-26.87 -17.47,-59.12 -12.09,-96.73l74.16 -523.99c1.08,-18.27 -7.78,-34.13 -26.6,-47.57 -18.81,-13.43 -43.26,-20.15 -73.36,-20.15l-16.12 0c-13.97,0 -27.95,1.61 -41.92,4.84 -13.97,3.22 -26.6,7.79 -37.89,13.7 -11.28,5.92 -20.42,13.17 -27.4,21.76 -6.99,8.6 -10.48,17.74 -10.48,27.41l-95.12 690.05 -295.05 0 96.74 -690.05c2.15,-18.27 -5.92,-34.13 -24.18,-47.57 -18.28,-13.43 -43,-20.15 -74.17,-20.15l-11.28 0c-31.18,0 -58.58,6.72 -82.23,20.15 -23.64,13.44 -36,29.3 -37.08,47.57l-93.5 690.05 -303.1 0 128.98 -904.48c39.77,-4.31 77.12,-7.25 112.05,-8.87 34.94,-1.61 65.29,-1.61 91.1,0 25.79,1.62 46.49,5.65 62.07,12.09 15.59,6.46 24.99,15.05 28.22,25.8 62.34,-30.1 131.67,-45.15 207.98,-45.15 53.74,0 101.84,7.52 144.3,22.57 42.46,15.05 77.12,34.94 103.99,59.66 7.52,-6.46 15.05,-11.82 22.57,-16.13 7.52,-4.3 14.51,-8.05 20.97,-11.28 7.52,-4.3 15.04,-7.52 22.56,-9.67 62.35,-30.1 132.21,-45.15 209.6,-45.15zm395 195.09c3.23,-26.87 15.05,-52.13 35.47,-75.78 20.43,-23.65 46.76,-44.34 79,-62.08 32.24,-17.74 69.05,-31.71 110.43,-41.92 41.39,-10.21 84.65,-15.32 129.79,-15.32l241.85 0c45.14,0 86.52,5.11 124.14,15.32 37.61,10.21 69.59,23.91 95.93,41.11 26.33,17.2 45.95,37.35 58.85,60.47 12.89,23.1 17.2,47.56 12.89,73.36l-38.69 285.37 -590.09 0 -30.63 219.26c-2.15,17.2 6.45,32.25 25.79,45.15 19.35,12.9 44.61,19.35 75.78,19.35l77.4 0c29.02,0 55.89,-6.45 80.61,-19.35 24.72,-12.9 39.23,-27.95 43.53,-45.15l0 -29.02c59.12,-22.57 110.71,-38.69 154.78,-48.37 44.07,-9.67 78.72,-12.36 103.99,-8.06 25.26,4.3 40.31,15.86 45.15,34.67 4.84,18.81 -1.35,45.41 -18.55,79.8 -10.74,24.72 -26.6,48.65 -47.56,71.75 -20.97,23.11 -46.49,44.07 -76.59,62.88 -30.1,18.82 -64.22,33.87 -102.38,45.15 -38.16,11.28 -79.81,16.93 -124.95,16.93l-240.23 0c-45.14,0 -86.53,-5.11 -124.14,-15.32 -37.62,-10.21 -69.87,-24.18 -96.74,-41.92 -26.87,-17.73 -47.29,-38.69 -61.27,-62.88 -13.97,-24.18 -19.35,-49.71 -16.12,-76.59l72.55 -528.81zm283.76 119.31l298.27 0 14.52 -83.84c1.07,-18.27 -8.33,-34.13 -28.22,-47.57 -19.89,-13.43 -44.34,-20.15 -73.36,-20.15l-77.39 0c-31.18,0 -58.58,6.72 -82.23,20.15 -23.64,13.44 -36,29.3 -37.08,47.57l-14.51 83.84zm1631.61 -298.27l-125.76 904.48c-40.84,3.23 -79.26,6.18 -115.27,8.86 -36.01,2.69 -67.45,3.5 -94.32,2.42 -26.87,-1.07 -47.83,-4.3 -62.88,-9.67 -15.05,-5.37 -21.49,-13.97 -19.35,-25.79 -33.33,12.9 -66.64,23.1 -99.96,30.63 -33.33,7.52 -68.79,11.29 -106.41,11.29l-72.55 0c-45.15,0 -86.53,-5.11 -124.14,-15.32 -37.62,-10.21 -70.14,-24.18 -97.55,-41.92 -27.4,-17.74 -47.83,-38.42 -61.27,-62.07 -13.43,-23.65 -18.54,-48.38 -15.31,-74.17l104.8 -728.74c39.77,-16.13 77.12,-23.65 112.05,-22.57 34.94,1.07 64.76,8.86 89.48,23.37 24.72,14.51 43.27,35.74 55.63,63.68 12.36,27.95 16.39,60.2 12.09,96.74l-74.17 533.66c-2.15,18.27 6.72,33.32 26.6,45.14 19.89,11.82 45.42,17.74 76.59,17.74l79 0c32.24,0 59.38,-5.92 81.41,-17.74 22.03,-11.82 34.67,-26.87 37.89,-45.14l96.73 -694.89 296.66 0zm-2515.13 1388.92c58.76,0 112.86,6.81 162.3,20.43 49.44,13.61 92.07,32.24 127.91,55.89 35.82,23.64 62.7,51.23 80.61,82.76 17.91,31.53 24.72,65.2 20.42,101.04l-103.19 733.04c-4.3,34.4 -20.06,67.35 -47.29,98.88 -27.23,31.53 -61.99,59.12 -104.27,82.77 -42.27,23.64 -89.93,42.27 -142.95,55.89 -53.02,13.61 -108.2,20.42 -165.52,20.42l-107.48 0c-50.16,0 -96.38,-5.02 -138.66,-15.05 -42.27,-10.02 -79.17,-23.64 -110.71,-40.84l-55.89 382.65c-50.15,25.79 -98.52,37.97 -145.1,36.54 -46.58,-1.44 -87.43,-12.9 -122.53,-34.4 -35.12,-21.49 -61.99,-51.23 -80.61,-89.22 -18.64,-37.97 -25.08,-80.61 -19.35,-127.9l191.31 -1341.41c60.2,-8.59 114.66,-14.69 163.38,-18.27 48.73,-3.59 90.29,-3.95 124.68,-1.08 34.4,2.87 60.55,8.95 78.46,18.28 17.91,9.31 26.15,22.56 24.71,39.76 83.12,-40.12 173.42,-60.19 270.87,-60.19l98.88 0zm-6.45 307.4c1.43,-24.36 -10.75,-45.5 -36.54,-63.41 -25.8,-17.92 -58.76,-26.87 -98.89,-26.87l-103.19 0c-41.56,0 -78.1,8.95 -109.63,26.87 -31.53,17.92 -48.01,39.05 -49.43,63.41l-92.44 640.61c-2.87,24.36 8.6,44.43 34.4,60.2 25.8,15.76 59.48,23.64 101.04,23.64l103.19 0c42.99,0 79.17,-7.88 108.55,-23.64 29.38,-15.77 46.22,-35.83 50.52,-60.2l92.43 -640.61zm1625.17 920.07c-273.73,37.26 -404.14,26.51 -391.24,-32.25 -44.43,17.2 -89.22,30.82 -134.35,40.84 -45.15,10.03 -90.65,15.05 -136.51,15.05l-133.28 0c-60.19,0 -115.37,-6.81 -165.52,-20.42 -50.16,-13.62 -93.51,-32.25 -130.06,-55.89 -36.54,-23.65 -63.77,-51.24 -81.69,-82.77 -17.91,-31.53 -24.72,-64.48 -20.42,-98.88l42.99 -281.61c5.74,-35.82 22.21,-69.86 49.44,-102.11 27.23,-32.25 61.63,-60.2 103.19,-83.84 41.56,-23.64 88.85,-42.28 141.88,-55.89 53.02,-13.62 108.19,-20.43 165.52,-20.43l255.81 0c40.13,0 75.96,-8.95 107.48,-26.87 31.53,-17.91 48.73,-39.05 51.59,-63.41l8.6 -51.59c2.87,-24.36 -8.24,-45.5 -33.33,-63.41 -25.07,-17.92 -58.4,-26.87 -99.96,-26.87l-105.34 0c-38.69,0 -73.81,8.95 -105.34,26.87 -31.53,17.92 -48.73,39.05 -51.59,63.41l-8.59 8.6 -386.95 0 4.3 -55.89c4.31,-35.83 20.43,-69.51 48.38,-101.04 27.94,-31.53 63.41,-59.12 106.4,-82.76 43,-23.65 91.72,-42.28 146.18,-55.89 54.46,-13.62 111.79,-20.43 171.98,-20.43l322.45 0c60.2,0 115.37,6.81 165.53,20.43 50.15,13.61 92.79,32.24 127.9,55.89 35.12,23.64 61.63,51.23 79.54,82.76 17.91,31.53 24,65.2 18.27,101.04l-133.28 967.35zm-313.86 -612.66c-38.69,17.19 -80.61,29.73 -125.76,37.61 -45.14,7.88 -92.79,11.82 -142.95,11.82l-27.95 0c-40.12,0 -75.24,8.96 -105.34,26.87 -30.09,17.92 -48.01,39.05 -53.74,63.41l-23.64 193.47c-2.87,24.36 8.95,44.43 35.47,60.2 26.51,15.76 60.55,23.64 102.11,23.64l141.88 0c40.12,0 75.24,-7.88 105.34,-23.64 30.09,-15.77 47.29,-35.83 51.59,-60.2l42.99 -333.19zm670.7 -943.72c53.02,-25.79 103.55,-37.61 151.55,-35.46 48.01,2.15 88.5,15.41 121.45,39.77 32.97,24.36 57.69,58.4 74.17,102.11 16.48,43.71 20.43,94.22 11.82,151.55l-180.57 1300.56c-50.15,28.66 -98.53,44.43 -145.11,47.3 -46.58,2.87 -87.42,-6.1 -122.53,-26.87 -35.11,-20.79 -61.98,-52.31 -80.61,-94.59 -18.63,-42.27 -23.64,-93.5 -15.04,-153.7l184.87 -1330.66zm1248.96 328.91c58.76,0 112.86,6.81 162.3,20.43 49.44,13.61 92.07,32.24 127.91,55.89 35.82,23.64 62.7,51.23 80.61,82.76 17.91,31.53 24.72,65.2 20.42,101.04l-103.19 733.04c-4.3,34.4 -20.06,67.35 -47.29,98.88 -27.23,31.53 -61.99,59.12 -104.27,82.77 -42.27,23.64 -89.93,42.27 -142.95,55.89 -53.02,13.61 -108.2,20.42 -165.52,20.42l-107.48 0c-50.16,0 -96.38,-5.02 -138.66,-15.05 -42.27,-10.02 -79.17,-23.64 -110.71,-40.84l-55.89 382.65c-50.15,25.79 -98.52,37.97 -145.1,36.54 -46.58,-1.44 -87.43,-12.9 -122.53,-34.4 -35.12,-21.49 -61.99,-51.23 -80.61,-89.22 -18.64,-37.97 -25.08,-80.61 -19.35,-127.9l191.31 -1341.41c60.2,-8.59 114.66,-14.69 163.38,-18.27 48.73,-3.59 90.29,-3.95 124.68,-1.08 34.4,2.87 60.55,8.95 78.46,18.28 17.91,9.31 26.15,22.56 24.71,39.76 83.12,-40.12 173.42,-60.19 270.87,-60.19l98.88 0zm-6.45 307.4c1.43,-24.36 -10.75,-45.5 -36.54,-63.41 -25.8,-17.92 -58.76,-26.87 -98.89,-26.87l-103.19 0c-41.56,0 -78.1,8.95 -109.63,26.87 -31.53,17.92 -48.01,39.05 -49.43,63.41l-92.44 640.61c-2.87,24.36 8.6,44.43 34.4,60.2 25.8,15.76 59.48,23.64 101.04,23.64l103.19 0c42.99,0 79.17,-7.88 108.55,-23.64 29.38,-15.77 46.22,-35.83 50.52,-60.2l92.43 -640.61zm571.81 -285.91c60.2,-14.33 114.66,-21.49 163.38,-21.49 48.73,0 89.21,8.59 121.45,25.79 32.25,17.2 55.17,44.07 68.79,80.61 13.61,36.54 15.41,84.92 5.38,145.11l-135.43 978.11 -395.54 0 171.97 -1208.12zm442.84 -350.4l-34.4 238.62 -391.24 0 27.95 -238.62 397.69 0zm758.84 1341.41l-30.1 197.77c-21.49,7.16 -44.07,11.82 -67.71,13.97 -23.64,2.15 -47.65,3.23 -72.01,3.23l-94.59 0c-60.19,0 -115.37,-6.81 -165.52,-20.43 -50.16,-13.61 -92.79,-32.24 -127.91,-55.89 -35.11,-23.64 -61.98,-51.59 -80.61,-83.84 -18.63,-32.24 -26.51,-66.27 -23.64,-102.11l109.63 -728.74 -148.32 0 32.24 -214.97 141.88 0 17.2 -98.88c5.74,-45.87 23.29,-87.43 52.67,-124.68 29.38,-37.26 64.84,-67.72 106.4,-91.37 41.56,-23.64 86.35,-39.77 134.35,-48.37 48.02,-8.6 93.51,-6.46 136.51,6.45l-55.9 356.85 148.33 0 -32.25 214.97 -146.18 0 -94.59 690.05c-4.3,22.93 6.1,42.99 31.18,60.19 25.07,17.2 58.4,25.8 99.96,25.8l109.63 0 19.35 0zm236.46 -752.39c4.3,-35.83 20.07,-69.51 47.3,-101.04 27.23,-31.53 62.34,-59.12 105.34,-82.76 42.99,-23.65 92.07,-42.28 147.26,-55.89 55.17,-13.62 112.85,-20.43 173.05,-20.43l322.45 0c60.19,0 115.37,6.81 165.52,20.43 50.16,13.61 92.79,31.89 127.91,54.81 35.12,22.93 61.27,49.8 78.46,80.61 17.2,30.82 22.92,63.41 17.2,97.81l-51.59 380.5 -786.78 0 -40.85 292.35c-2.87,22.93 8.6,42.99 34.4,60.19 25.8,17.2 59.48,25.8 101.04,25.8l103.19 0c38.69,0 74.52,-8.6 107.48,-25.8 32.96,-17.2 52.3,-37.25 58.04,-60.19l0 -38.69c78.82,-30.1 147.62,-51.59 206.37,-64.49 58.76,-12.89 104.98,-16.48 138.65,-10.74 33.68,5.73 53.74,21.13 60.19,46.22 6.46,25.07 -1.79,60.55 -24.72,106.4 -14.33,32.97 -35.46,64.85 -63.41,95.66 -27.94,30.82 -61.98,58.76 -102.11,83.84 -40.12,25.08 -85.63,45.14 -136.5,60.19 -50.87,15.05 -106.41,22.57 -166.6,22.57l-320.3 0c-60.19,0 -115.37,-6.81 -165.52,-20.43 -50.16,-13.61 -93.15,-32.24 -128.99,-55.89 -35.82,-23.64 -63.06,-51.59 -81.68,-83.84 -18.63,-32.24 -25.8,-66.27 -21.49,-102.11l96.73 -705.09zm378.34 159.08l397.7 0 19.35 -111.79c1.43,-24.36 -11.11,-45.5 -37.62,-63.41 -26.51,-17.92 -59.12,-26.87 -97.81,-26.87l-103.19 0c-41.56,0 -78.1,8.95 -109.63,26.87 -31.53,17.92 -48.01,39.05 -49.43,63.41l-19.36 111.79z"/>
  </g>
 </g>
</svg>
